<svg width="200" height="194" viewBox="0 0 200 194" fill="none" xmlns="http://www.w3.org/2000/svg">
<ellipse cx="100" cy="97" rx="100" ry="97" fill="#1C1C1C"/>
<path d="M141.11 54H133.01C132.733 53.9997 132.458 54.0558 132.203 54.1648C131.947 54.2739 131.717 54.4337 131.525 54.6345C131.333 54.8353 131.185 55.0729 131.087 55.333C130.99 55.5931 130.947 55.8702 130.96 56.1475L131.644 70.2862C127.67 65.6043 122.725 61.8443 117.151 59.2677C111.577 56.6912 105.509 55.36 99.3685 55.3667C76.0214 55.3667 56.9829 74.4206 57 97.7676C57.0171 121.152 75.9804 140.104 99.3685 140.104C109.86 140.118 119.981 136.226 127.759 129.185C127.967 128.999 128.134 128.773 128.251 128.52C128.369 128.267 128.433 127.993 128.441 127.714C128.449 127.435 128.399 127.158 128.296 126.899C128.193 126.64 128.038 126.405 127.841 126.207L122.032 120.399C121.665 120.031 121.171 119.817 120.652 119.8C120.132 119.782 119.625 119.963 119.234 120.305C114.644 124.343 108.933 126.886 102.861 127.595C96.7887 128.304 90.6449 127.146 85.2482 124.274C79.8514 121.403 75.4582 116.954 72.6542 111.522C69.8501 106.09 68.7685 99.9321 69.5535 93.8695C70.3385 87.8069 72.9527 82.1276 77.0478 77.5887C81.1429 73.0498 86.5242 69.8669 92.4743 68.4644C98.4244 67.0619 104.661 67.5064 110.352 69.7387C116.043 71.9709 120.918 75.8848 124.328 80.9586L106.983 80.1266C106.706 80.1135 106.428 80.1567 106.168 80.2538C105.908 80.3509 105.671 80.4999 105.47 80.6916C105.269 80.8833 105.109 81.1137 105 81.369C104.891 81.6243 104.835 81.8991 104.835 82.1767V90.2763C104.835 90.82 105.051 91.3414 105.436 91.7259C105.82 92.1104 106.342 92.3264 106.885 92.3264H141.11C141.654 92.3264 142.175 92.1104 142.56 91.7259C142.944 91.3414 143.16 90.82 143.16 90.2763V56.0501C143.16 55.5064 142.944 54.9849 142.56 54.6005C142.175 54.216 141.654 54 141.11 54Z" fill="#FF474D"/>
</svg>
